HIERARCHY
ROOT Hips
{
	OFFSET 0.000000 0.000000 0.000000
	CHANNELS 6 Xposition Yposition Zposition Zrotation Yrotation Xrotation 
	JOINT LowerBack
	{
		OFFSET 0.000000 0.000000 0.000000
		CHANNELS 3 Zrotation Yrotation Xrotation
		JOINT Spine
		{
			OFFSET 0.028270 2.035590 -0.193380
			CHANNELS 3 Zrotation Yrotation Xrotation
			JOINT Spine1
			{
				OFFSET 0.056720 2.048850 -0.042750
				CHANNELS 3 Zrotation Yrotation Xrotation
				JOINT Neck
				{
					OFFSET 0.000000 0.000000 0.000000
					CHANNELS 3 Zrotation Yrotation Xrotation
					JOINT Neck1
					{
						OFFSET -0.054170 1.746240 0.172020
						CHANNELS 3 Zrotation Yrotation Xrotation
						JOINT Head
						{
							OFFSET 0.104070 1.761360 -0.123970
							CHANNELS 3 Zrotation Yrotation Xrotation
							End Site
							{
								OFFSET 0.000000 0.000000 0.000000
							}
						}
					}
				}
				JOINT LeftShoulder
				{
					OFFSET 0.000000 0.000000 0.000000
					CHANNELS 3 Zrotation Yrotation Xrotation
					JOINT LeftArm
					{
						OFFSET 3.362410 1.200890 -0.311210
						CHANNELS 3 Zrotation Yrotation Xrotation
						JOINT LeftForeArm
						{
							OFFSET 4.983000 -0.000000 -0.000000
							CHANNELS 3 Zrotation Yrotation Xrotation
							JOINT LeftHand
							{
								OFFSET 3.483560 -0.000000 -0.000000
								CHANNELS 3 Zrotation Yrotation Xrotation
								JOINT LeftFingerBase
								{
									OFFSET 0.000000 0.000000 0.000000
									CHANNELS 3 Zrotation Yrotation Xrotation
									JOINT LeftHandIndex1
									{
										OFFSET 0.715260 -0.000000 -0.000000
										CHANNELS 3 Zrotation Yrotation Xrotation
										End Site
										{
											OFFSET 0.000000 0.000000 0.000000
										}
									}
								}
								JOINT LThumb
								{
									OFFSET 0.000000 0.000000 0.000000
									CHANNELS 3 Zrotation Yrotation Xrotation
									End Site
									{
										OFFSET 0.000000 0.000000 0.000000
									}
								}
							}
						}
					}
				}
				JOINT RightShoulder
				{
					OFFSET 0.000000 0.000000 0.000000
					CHANNELS 3 Zrotation Yrotation Xrotation
					JOINT RightArm
					{
						OFFSET -3.136600 1.374050 -0.404650
						CHANNELS 3 Zrotation Yrotation Xrotation
						JOINT RightForeArm
						{
							OFFSET -5.241900 -0.000000 -0.000000
							CHANNELS 3 Zrotation Yrotation Xrotation
							JOINT RightHand
							{
								OFFSET -3.444170 -0.000000 -0.000000
								CHANNELS 3 Zrotation Yrotation Xrotation
								JOINT RightFingerBase
								{
									OFFSET 0.000000 0.000000 0.000000
									CHANNELS 3 Zrotation Yrotation Xrotation
									JOINT RightHandIndex1
									{
										OFFSET -0.622530 -0.000000 -0.000000
										CHANNELS 3 Zrotation Yrotation Xrotation
										End Site
										{
											OFFSET 0.000000 0.000000 0.000000
										}
									}
								}
								JOINT RThumb
								{
									OFFSET 0.000000 0.000000 0.000000
									CHANNELS 3 Zrotation Yrotation Xrotation
									End Site
									{
										OFFSET 0.000000 0.000000 0.000000
									}
								}
							}
						}
					}
				}
			}
		}
	}
}
}
MOTION
Frames: 15
Frame Time: 0.008333
16.169950 16.828008 1.411082 150.773579 -87.197470 -100.061314 -0.076711 -2.616079 -4.116628 -0.519665 -2.783635 -3.335014 -4.851564 -2.967851 2.397842 10.022334 -15.935027 -13.219384 -1.319214 0.001225 -1.899848 0.000000 0.000000 0.000000 -4.670777 18.278091 2.509178 -57.484824 45.150788 6.325864 -2.843121 -19.685450 0.001387 0.691839 0.014252 0.000932 -0.132159 -0.095750 0.000000 0.000000 0.000000 0.000000 0.000000 0.000000 0.000000 12.623284 -15.237867 2.563544 51.586161 -40.632159 -22.604926 2.735915 6.941067 0.013510 -7.165827 6.204370 -0.406137 0.221106 -0.084798 -0.000000 0.000000 0.000000 0.000000 0.000000 0.000000 0.000000 
16.147597 16.740697 1.405019 148.585316 -87.167605 -96.760430 -0.132392 -2.646856 -4.323083 -0.545266 -2.819309 -3.397851 -4.869583 -3.006854 2.366308 10.103919 -15.951209 -13.369771 -1.320820 0.004521 -1.962238 0.000000 0.000000 0.000000 -4.836167 18.180160 2.584057 -57.582066 44.888535 6.215768 -2.805354 -20.262501 0.001297 0.662604 0.009553 0.000833 -0.129495 -0.090948 0.000000 0.000000 0.000000 0.000000 0.000000 0.000000 0.000000 12.775136 -15.219314 2.670802 52.196159 -40.564760 -22.380312 2.698823 7.608533 0.012585 -6.888463 6.014652 -0.378836 0.215698 -0.085076 -0.000000 0.000000 0.000000 0.000000 0.000000 0.000000 0.000000 
16.124037 16.641907 1.399100 145.958579 -87.140409 -93.006789 -0.182865 -2.681057 -4.560246 -0.569132 -2.859593 -3.467455 -4.885328 -3.050685 2.338992 10.183366 -15.980017 -13.521090 -1.322676 0.007813 -2.024578 0.000000 0.000000 0.000000 -4.972096 18.081683 2.660486 -57.705684 44.561406 6.128069 -2.767910 -20.818931 0.001249 0.637139 -0.010354 0.000636 -0.126860 -0.085854 0.000000 0.000000 0.000000 0.000000 0.000000 0.000000 0.000000 12.929714 -15.216302 2.773614 52.810954 -40.456459 -22.055750 2.665233 8.308222 0.011698 -6.611120 5.820018 -0.352136 0.210374 -0.085277 -0.000000 0.000000 0.000000 0.000000 0.000000 0.000000 0.000000 
16.099579 16.531398 1.393501 142.932198 -87.110972 -88.845572 -0.225725 -2.717204 -4.827404 -0.591255 -2.903262 -3.545039 -4.901627 -3.098226 2.310539 10.259812 -16.012670 -13.667829 -1.326998 0.010774 -2.084996 0.000000 0.000000 0.000000 -5.105047 17.959684 2.734725 -57.841184 44.219667 6.028640 -2.731637 -21.391408 0.001201 0.606401 -0.033329 0.000438 -0.124198 -0.080629 0.000000 0.000000 0.000000 0.000000 0.000000 0.000000 0.000000 13.090134 -15.220423 2.872554 53.423998 -40.319530 -21.690551 2.634680 9.026233 0.010858 -6.326473 5.627481 -0.326133 0.205060 -0.085587 -0.000000 0.000000 0.000000 0.000000 0.000000 0.000000 0.000000 
16.073962 16.408866 1.388430 139.551319 -87.074816 -84.326296 -0.262051 -2.754764 -5.125731 -0.611063 -2.949658 -3.629018 -4.915744 -3.148677 2.287346 10.333044 -16.059373 -13.813191 -1.331947 0.013632 -2.144283 0.000000 0.000000 0.000000 -5.212189 17.838748 2.808328 -57.994948 43.818120 5.942096 -2.696055 -21.931144 0.001200 0.583454 -0.071995 0.000141 -0.121646 -0.075193 0.000000 0.000000 0.000000 0.000000 0.000000 0.000000 0.000000 13.252725 -15.241894 2.965266 54.020349 -40.138875 -21.245973 2.607103 9.754769 0.010060 -6.051926 5.434087 -0.301532 0.199950 -0.085867 -0.000000 0.000000 0.000000 0.000000 0.000000 0.000000 0.000000 
16.047013 16.274382 1.384096 135.897820 -87.027940 -79.539033 -0.289590 -2.792458 -5.450883 -0.628570 -2.997658 -3.719547 -4.930547 -3.200960 2.264705 10.401677 -16.109713 -13.951401 -1.339965 0.016036 -2.200564 0.000000 0.000000 0.000000 -5.317659 17.698213 2.878092 -58.156720 43.398019 5.838377 -2.661523 -22.470044 0.001216 0.563243 -0.117388 -0.000156 -0.119158 -0.069688 0.000000 0.000000 0.000000 0.000000 0.000000 0.000000 0.000000 13.420678 -15.270374 3.052382 54.600977 -39.923750 -20.780980 2.581899 10.485889 0.009310 -5.782345 5.245070 -0.278430 0.194981 -0.086279 -0.000000 0.000000 0.000000 0.000000 0.000000 0.000000 0.000000 
16.018939 16.128168 1.380699 132.062356 -86.967822 -74.582815 -0.306888 -2.829588 -5.797552 -0.643204 -3.046502 -3.814807 -4.945688 -3.254210 2.244178 10.464386 -16.163631 -14.081544 -1.351085 0.017958 -2.253495 0.000000 0.000000 0.000000 -5.418940 17.543647 2.943886 -58.328075 42.946973 5.720699 -2.627642 -22.994173 0.001264 0.552517 -0.172623 -0.000453 -0.116784 -0.064121 0.000000 0.000000 0.000000 0.000000 0.000000 0.000000 0.000000 13.592376 -15.305515 3.133055 55.162608 -39.667661 -20.297308 2.558493 11.215249 0.008597 -5.528130 5.060852 -0.257128 0.190249 -0.086803 -0.000000 0.000000 0.000000 0.000000 0.000000 0.000000 0.000000 
15.989706 15.970684 1.378355 128.137592 -86.894081 -69.559592 -0.311205 -2.865542 -6.158060 -0.654421 -3.095591 -3.913006 -4.962114 -3.307738 2.225146 10.519741 -16.215534 -14.201022 -1.366403 0.019240 -2.302287 0.000000 0.000000 0.000000 -5.521830 17.372843 3.004963 -58.507846 42.466010 5.585161 -2.594045 -23.504383 0.001340 0.554082 -0.236841 -0.000850 -0.114521 -0.058540 0.000000 0.000000 0.000000 0.000000 0.000000 0.000000 0.000000 13.768286 -15.341226 3.206982 55.707709 -39.367892 -19.813326 2.536076 11.940866 0.007920 -5.296630 4.883495 -0.238026 0.185806 -0.087478 -0.000000 0.000000 0.000000 0.000000 0.000000 0.000000 0.000000 
15.959552 15.802645 1.377212 124.202830 -86.808696 -64.559690 -0.298984 -2.899792 -6.523380 -0.661540 -3.144434 -4.012098 -4.980959 -3.360955 2.206759 10.566621 -16.259260 -14.307610 -1.387055 0.019721 -2.346283 0.000000 0.000000 0.000000 -5.632383 17.183912 3.060799 -58.694994 41.954232 5.430128 -2.560377 -24.003008 0.001437 0.569659 -0.307407 -0.001346 -0.112345 -0.053003 -0.000000 0.000000 0.000000 0.000000 0.000000 0.000000 0.000000 13.949129 -15.370543 3.273957 56.240240 -39.022101 -19.344157 2.513847 12.662775 0.007269 -5.095887 4.714873 -0.221424 0.181711 -0.088330 -0.000000 0.000000 0.000000 0.000000 0.000000 0.000000 0.000000 
15.928390 15.624993 1.377234 120.320187 -86.714560 -59.656126 -0.266301 -2.931866 -6.884257 -0.664031 -3.192683 -4.110432 -5.004292 -3.413447 2.186637 10.604753 -16.284760 -14.398600 -1.414922 0.019163 -2.384711 0.000000 0.000000 0.000000 -5.762008 16.970456 3.110630 -58.884699 41.419323 5.251809 -2.526305 -24.501379 0.001540 0.598210 -0.377714 -0.001841 -0.110195 -0.047611 -0.000000 0.000000 0.000000 0.000000 0.000000 0.000000 0.000000 14.138053 -15.382332 3.334177 56.766754 -38.630993 -18.914362 2.490962 13.383184 0.006637 -4.931178 4.557130 -0.207322 0.177984 -0.089415 -0.000000 0.000000 0.000000 0.000000 0.000000 0.000000 0.000000 
15.882900 15.424002 1.401173 102.677877 -86.861249 -40.666765 0.590132 -3.034750 -7.715219 -0.434024 -3.382377 -4.319801 -5.012255 -3.612758 2.203486 10.400446 -16.283020 -14.451283 -1.442468 0.017082 -2.399866 0.000000 0.000000 0.000000 -6.260842 16.863528 3.154864 -58.976343 40.911678 5.191942 -2.477742 -25.021269 0.001649 0.640583 -0.447778 -0.002534 -0.108323 -0.042072 -0.000000 0.000000 0.000000 0.000000 0.000000 0.000000 0.000000 14.008864 -15.438812 3.346564 57.016585 -38.323994 -18.302107 2.516547 14.121104 0.006206 -4.811980 4.396952 -0.195521 0.177557 -0.090455 -0.000000 0.000000 0.000000 0.000000 0.000000 0.000000 0.000000 
15.849742 15.230051 1.403302 99.493486 -86.713789 -36.571300 0.668489 -3.053127 -8.049014 -0.425140 -3.422787 -4.412184 -5.048229 -3.657045 2.179374 10.426603 -16.256573 -14.511954 -1.487190 0.014217 -2.427665 0.000000 0.000000 0.000000 -6.436396 16.617523 3.192936 -59.160200 40.290877 4.998783 -2.442550 -25.498259 0.001730 0.699088 -0.505892 -0.003130 -0.106120 -0.037186 -0.000000 0.000000 0.000000 0.000000 0.000000 0.000000 0.000000 14.223206 -15.393926 3.393253 57.538075 -37.827688 -17.944644 2.489623 14.841501 0.005570 -4.752341 4.265274 -0.187418 0.174764 -0.091898 -0.000000 0.000000 0.000000 0.000000 0.000000 0.000000 0.000000 
15.815741 15.030127 1.406420 96.425489 -86.577716 -32.659669 0.777052 -3.067366 -8.355084 -0.409479 -3.460821 -4.497194 -5.089087 -3.698500 2.156567 10.449080 -16.208711 -14.564939 -1.538662 0.010504 -2.452772 0.000000 0.000000 0.000000 -6.627453 16.379204 3.228052 -59.338301 39.566384 4.829810 -2.405919 -25.922732 0.001788 0.776375 -0.551953 -0.003826 -0.103834 -0.032545 -0.000000 0.000000 0.000000 0.000000 0.000000 0.000000 0.000000 14.447508 -15.324371 3.432961 58.051148 -37.243012 -17.579160 2.459120 15.547453 0.004911 -4.770928 4.149290 -0.183114 0.172648 -0.093462 -0.000000 0.000000 0.000000 0.000000 0.000000 0.000000 0.000000 
15.780239 14.825561 1.410355 93.426769 -86.452423 -28.886195 0.917223 -3.076909 -8.637992 -0.388828 -3.496814 -4.579681 -5.143659 -3.737760 2.121969 10.470612 -16.096366 -14.598424 -1.606279 0.004791 -2.471399 0.000000 0.000000 0.000000 -6.872982 16.097811 3.256930 -59.488879 38.820483 4.650988 -2.367788 -26.354144 0.001798 0.868078 -0.573664 -0.004423 -0.101331 -0.028456 -0.000000 0.000000 0.000000 0.000000 0.000000 0.000000 0.000000 14.706870 -15.185939 3.466724 58.572482 -36.624866 -17.306512 2.426085 16.259867 0.004226 -4.840419 4.050851 -0.181411 0.170928 -0.095391 -0.000000 0.000000 0.000000 0.000000 0.000000 0.000000 0.000000 
15.743451 14.618092 1.415038 90.520338 -86.341416 -25.281890 1.085719 -3.081474 -8.889875 -0.362783 -3.529654 -4.655173 -5.206531 -3.773496 2.085033 10.496242 -15.948151 -14.628044 -1.683597 -0.001988 -2.488657 0.000000 0.000000 0.000000 -7.148468 15.819189 3.283593 -59.614836 37.953694 4.503882 -2.328462 -26.714252 0.001764 0.981642 -0.570209 -0.004920 -0.098668 -0.024800 -0.000000 0.000000 0.000000 0.000000 0.000000 0.000000 0.000000 14.990069 -15.006786 3.495180 59.083990 -35.906703 -17.040265 2.389031 16.941672 0.003494 -4.991198 3.972178 -0.183406 0.169821 -0.097466 -0.000000 0.000000 0.000000 0.000000 0.000000 0.000000 0.000000 
